<svg width="136" height="25" viewBox="0 0 136 25" fill="none" xmlns="http://www.w3.org/2000/svg">
<path d="M34.6813 19.2632C30.427 19.2632 27.006 15.7325 27.006 11.4563C27.006 7.18004 30.427 3.62748 34.6813 3.62748C37.1594 3.62748 39.3304 4.78974 40.69 6.56602L38.6725 8.10108C37.7514 6.89496 36.3918 6.12743 34.7471 6.12743C31.8744 6.12743 29.7034 8.5616 29.7034 11.4563C29.7034 14.351 31.8305 16.7632 34.7471 16.7632C36.3918 16.7632 37.7514 15.9957 38.6725 14.7896L40.69 16.3246C39.3304 18.1009 37.1594 19.2632 34.6813 19.2632ZM44.688 19H42.1442V3.18889H44.688V19ZM51.8569 19.2632C48.9402 19.2632 46.4184 17.1141 46.4184 13.8685C46.4184 10.623 48.9402 8.49581 51.8569 8.49581C54.7735 8.49581 57.3173 10.623 57.3173 13.8685C57.3173 17.1141 54.7735 19.2632 51.8569 19.2632ZM51.8569 16.8948C53.4358 16.8948 54.7515 15.6667 54.7515 13.8685C54.7515 12.1142 53.4358 10.8642 51.8569 10.8642C50.2779 10.8642 48.9841 12.1142 48.9841 13.8685C48.9841 15.6667 50.2779 16.8948 51.8569 16.8948ZM66.202 14.2413V8.75896H68.7458V19H66.202V17.3992C65.6756 18.693 64.0529 19.2632 63.0222 19.2632C60.3907 19.2632 58.9214 17.4869 58.9214 14.5045V8.75896H61.4652V14.3948C61.4652 16.0395 62.452 16.8948 63.5924 16.8948C64.7546 16.8948 66.202 16.2369 66.202 14.2413ZM78.9447 10.0967V3.18889H81.4885V19H78.9447V17.6404C78.2429 18.7149 76.7956 19.2632 75.5456 19.2632C72.8483 19.2632 70.5018 17.136 70.5018 13.8685C70.5018 10.5791 72.8264 8.49581 75.5237 8.49581C76.8175 8.49581 78.2429 9.02212 78.9447 10.0967ZM75.9403 16.8948C77.4973 16.8948 78.9008 15.6448 78.9008 13.8466C78.9008 12.0484 77.4096 10.8642 75.9403 10.8642C74.3614 10.8642 73.0676 12.1361 73.0676 13.8466C73.0676 15.5571 74.3614 16.8948 75.9403 16.8948ZM89.5876 8.49581C92.4604 8.49581 94.7849 10.7545 94.7849 13.8685C94.7849 16.9825 92.4604 19.2632 89.5876 19.2632C87.8771 19.2632 86.2543 18.386 85.5087 16.9825V19H84.1053V3.18889H85.5087V10.7545C86.2763 9.35106 87.8552 8.49581 89.5876 8.49581ZM89.478 17.9255C91.649 17.9255 93.4033 16.1272 93.4033 13.8466C93.4033 11.5879 91.649 9.8335 89.478 9.8335C87.4385 9.8335 85.5087 11.4344 85.5087 13.9124C85.5087 16.2808 87.3508 17.9255 89.478 17.9255ZM101.588 19.2632C98.6715 19.2632 96.2374 17.1141 96.2374 13.8685C96.2374 10.623 98.6715 8.49581 101.588 8.49581C104.505 8.49581 106.961 10.623 106.961 13.8685C106.961 17.1141 104.505 19.2632 101.588 19.2632ZM101.588 17.9255C103.737 17.9255 105.557 16.2808 105.557 13.8685C105.557 11.4563 103.737 9.8335 101.588 9.8335C99.4171 9.8335 97.6409 11.4563 97.6409 13.8685C97.6409 16.2808 99.4171 17.9255 101.588 17.9255ZM113.737 19.2632C110.82 19.2632 108.386 17.1141 108.386 13.8685C108.386 10.623 110.82 8.49581 113.737 8.49581C116.653 8.49581 119.109 10.623 119.109 13.8685C119.109 17.1141 116.653 19.2632 113.737 19.2632ZM113.737 17.9255C115.886 17.9255 117.706 16.2808 117.706 13.8685C117.706 11.4563 115.886 9.8335 113.737 9.8335C111.566 9.8335 109.789 11.4563 109.789 13.8685C109.789 16.2808 111.566 17.9255 113.737 17.9255ZM124.131 19.2632C122.355 19.2632 120.578 18.2325 120.403 16.2808H121.697C121.85 17.136 122.64 18.0132 124.131 18.0132C125.6 18.0132 126.499 17.2456 126.499 16.215C126.499 15.3816 125.929 14.8334 124.877 14.5703L123.407 14.2194C121.96 13.8685 120.798 13.1229 120.798 11.4124C120.798 9.74579 122.223 8.49581 124.175 8.49581C125.885 8.49581 127.464 9.43877 127.53 11.2808H126.17C126.105 10.3598 125.205 9.74579 124.197 9.74579C123.013 9.74579 122.201 10.4695 122.201 11.4344C122.201 12.3992 123.034 12.8159 123.78 12.9913L125.293 13.3641C127.289 13.8466 127.903 15.0527 127.903 16.2369C127.903 18.057 126.258 19.2632 124.131 19.2632ZM132.063 8.75896H134.409V9.96508H132.063V19H130.681V9.96508H128.817V8.75896H130.681V4.92131H132.063V8.75896Z" fill="white"/>
<path d="M17.7909 4.73834H8.38732C8.00355 4.73834 7.92132 4.76598 7.70202 4.98712L0.246706 11.9521C0.0274118 12.1732 0 12.2561 0 12.6431V16.7341C0 19.0553 1.15129 20.2162 3.45388 20.2162H12.8575C13.2406 20.2162 13.3228 20.1886 13.5421 19.9674L20.9981 13.0025C21.2167 12.7813 21.2441 12.6984 21.2441 12.3114V8.22117C21.2441 5.89929 20.0935 4.73834 17.7909 4.73834Z" fill="#653DF5"/>
</svg>
