<svg width="48" height="48" viewBox="0 0 48 48" fill="none" xmlns="http://www.w3.org/2000/svg">
<rect width="48" height="48" rx="4" fill="white" fill-opacity="0.03"/>
<rect x="0.5" y="0.5" width="47" height="47" rx="3.5" stroke="white" stroke-opacity="0.03"/>
<path fill-rule="evenodd" clip-rule="evenodd" d="M12 16.3773V16C12 13.7907 13.7907 12 16 12H32C34.2093 12 36 13.7907 36 16V28C36 30.2093 34.2093 32 32 32H30.6667" fill="#2C1B6A"/>
<path d="M12 16.3773V16C12 13.7907 13.7907 12 16 12H32C34.2093 12 36 13.7907 36 16V28C36 30.2093 34.2093 32 32 32H30.6667" stroke="#2C1B6A" stroke-width="1.5" stroke-linecap="round" stroke-linejoin="round"/>
<path d="M36.0001 19.9999H30.6667" stroke="white" stroke-width="1.5" stroke-linecap="round" stroke-linejoin="round"/>
<path fill-rule="evenodd" clip-rule="evenodd" d="M25.7667 35.8959C28.2733 36.4746 30.6667 34.5706 30.6667 31.9986V20.5159C30.6667 18.6533 29.3813 17.0373 27.5667 16.6187L15.2667 13.78C13.5947 13.3933 12 14.6627 12 16.3773V29.5359C12 31.3986 13.2853 33.0146 15.1 33.4333L25.7667 35.8959Z" fill="#653DF5" stroke="#653DF5" stroke-width="1.5" stroke-linecap="round" stroke-linejoin="round"/>
<path d="M25.9986 25.9731C25.8146 25.9745 25.6666 26.1238 25.6666 26.3078C25.6666 26.4918 25.8159 26.6411 25.9999 26.6398C26.1839 26.6398 26.3333 26.4905 26.3333 26.3065C26.3333 26.1225 26.1839 25.9731 25.9986 25.9731Z" stroke="white" stroke-width="1.5" stroke-linecap="round" stroke-linejoin="round"/>
</svg>
